<svg version="1" xmlns="http://www.w3.org/2000/svg" width="933.333" height="933.333" viewBox="0 0 700.000000 700.000000"><path d="M138.5 36.5c-11.5 2.4-22.8 4.6-25 5-4.2.6-5.5.8-9.5 1.8-1.4.3-6.3 1.3-11 2.2-4.7.8-9.6 1.7-11 2-1.4.3-3.6.7-5 1-1.4.3-3.6.7-5 1-1.4.3-5 1-8 1.6-3 .6-6.8 1.3-8.5 1.6-5 .8-16.9 3.3-17 3.6-.1.1-1.3 1.8-2.7 3.7-5.8 8-9.9 17.2-12.9 29-1.4 5.8-1.8 10-1.5 18.5.6 14.7 1.7 19.8 7.9 34 15.9 36.8 64 81.6 115 106.9l5.8 2.9-18.5 18.1c-16.3 16-89.3 87.8-109.8 108l-7.7 7.6 9.2 4.6c5.1 2.6 17.7 9 28 14.2l18.8 9.6 17.7 22.1c19.3 24 19.8 24.6 22.7 28 1.3 1.4 10 5.3 25 11l23 8.7 4.1 8.2c2.2 4.4 9.8 19.3 16.9 33.1 7.1 13.7 14.2 27.7 15.8 31 1.7 3.3 3.9 7.2 4.9 8.7 1.4 2 36 26.6 54.8 39 1.4.9 23.4 16 48.9 33.6 40.1 27.5 46.6 31.7 48 30.6 1.6-1.3 14.8-10.5 45.8-31.7 59.4-40.7 96.1-66 98.8-68.2 2.3-1.7 5.7-7.1 11.3-18.2 4.5-8.7 13.1-25.5 19.2-37.3 6.1-11.8 11.9-23.2 12.8-25.2 1.7-3.6 2.2-3.8 25-12.5l23.4-8.8 6.4-8.2c3.5-4.5 7-8.7 7.7-9.5.7-.7 2.8-3.3 4.7-5.8 1.9-2.5 3.7-4.7 4-5 .3-.3 1.7-2.1 3.2-4.2 1.5-2 3.3-4.2 4-5 .8-.7 3.7-4.3 6.5-7.9 5.7-7.2 2.3-5.2 48.5-28.5L686 385l-11.5-11.3c-6.3-6.1-29-28.5-50.5-49.7-21.6-21.2-47-46.2-56.7-55.6l-17.4-17 4.8-2.4c16.2-8.1 37.5-21.6 53-33.7 12.8-10.1 14.1-11.2 26.8-23.8 11.8-11.8 20.7-22.8 28.4-35.3 19.6-31.5 21.1-63.5 4.5-91.2-5.8-9.5-4.6-8.9-24.1-12.6-9.8-1.9-18.9-3.6-20.3-3.9-1.4-.2-7-1.3-12.5-2.4-34.3-6.7-46.2-9.1-48.1-9.5-1.2-.2-3.7-.7-5.5-1-1.9-.3-6.9-1.2-11.2-2.1-4.3-.8-8.3-1.5-8.8-1.5-.6 0 1 2.8 3.3 6.2 24 34.8 31.5 65.4 23.1 94.8-4 14.1-15.4 32.4-28.5 45.9-13.1 13.4-35.1 30.3-38.4 29.6-1-.2-5.7-1.1-10.4-1.9-4.7-.9-15.9-2.9-25-4.6-9.1-1.6-17.6-3.1-19-3.4-1.4-.2-4.3-.7-6.5-1.1-2.2-.4-4.7-.9-5.5-1-.8-.2-5.3-1-10-1.9-4.7-.8-9.8-1.8-11.5-2.1-1.6-.3-4.6-.8-6.5-1.1-1.9-.3-4.2-.7-5-.9-.8-.2-3.5-.7-6-1-2.5-.3-5.2-.8-6-1-.8-.3-8.9-1.8-18-3.4-16.1-2.9-18.6-3-28-1.1-2.5.5-6.3 1.2-8.5 1.5-7.8 1.3-9 1.6-14 2.5-6.5 1.3-8.1 1.6-13.5 2.5-2.5.4-5.4.9-6.5 1.1-1.1.2-3.3.7-5 .9-1.6.3-6.8 1.3-11.5 2.1-4.7.9-9.6 1.8-11 2-2.8.5-17.4 3.2-20.6 3.8-1.2.2-3.7.7-5.5 1-1.9.3-4.5.8-5.9 1.1-1.3.2-4 .7-6 1-1.9.3-9.3 1.6-16.4 3l-12.9 2.5-6.1-4.4c-33.1-23.7-52.8-48.3-59.7-74.6-2.9-11-3.1-27.9-.6-39.5 3.6-15.8 10.7-31.5 21.9-48.3 6.1-9.1 6.6-10.2 4.6-10.1-1.3.1-11.7 2-23.3 4.4z"/></svg>